<svg id="图层_1" data-name="图层 1" xmlns="http://www.w3.org/2000/svg" viewBox="0 0 500 500"><path d="M236.17,87.36V.71H0V205.89C0,379.4.58,477.56,0,498.81H83.87V400.72h71.57v25.61H127.26v72.48H236.17V336.14H174.72c-21.74,0-55.33-.09-90.85-.28,0-.72-.39-7,0-18.8h152.3V102.89q-82.71.27-103.67.27c-3.88,0-28.44-.09-48.63-.27V87.36ZM152,257.12H83.87c0-4.18-.39-11.35,0-21.53H152Zm0-94v21.25l-.29.55q-27.37-.27-41.06-.28H83.87c0-4.53-.39-11.71,0-21.52Z"/><path d="M500,181.36H432.26V75.64H372.67V181.36H265V.71H500Z"/><path d="M265,199.35q141.53.27,228,.27h7V267.2q0,81.74-47.76,146.32v.27A209.08,209.08,0,0,0,500,419.52v79.29h-2q-63.48,0-114.73-26.43-.89,0-14.27,6.54-47.18,19.89-101.34,19.89h-2.33V419.52a210.28,210.28,0,0,0,48-5.73v-.27a241.31,241.31,0,0,1-20.68-32.42q-9-17.44-16.89-42-4.36-14.16-8.44-39.23-.58-6-.59-6.82h85.62q0,7.92,7.28,34.06,6.69,19.08,14,30.25,5.82,9.27,9.32,12.81,11.93-15.54,17.76-29.7a160.36,160.36,0,0,0,8.74-26.16q5.24-25.89,5.24-40.6c-4.66-.18-8.06-.28-10.2-.28H265Z"/></svg>